<?xml version="1.0" encoding="UTF-8" standalone="no"?>
<!-- Created with Inkscape (http://www.inkscape.org/) -->

<svg
   width="434.10669mm"
   height="100.61312mm"
   viewBox="0 0 434.10669 100.61312"
   version="1.1"
   id="svg1"
   xml:space="preserve"
   inkscape:version="1.4.2 (ebf0e940, 2025-05-08)"
   sodipodi:docname="tongji.svg"
   xmlns:inkscape="http://www.inkscape.org/namespaces/inkscape"
   xmlns:sodipodi="http://sodipodi.sourceforge.net/DTD/sodipodi-0.dtd"
   xmlns="http://www.w3.org/2000/svg"
   xmlns:svg="http://www.w3.org/2000/svg"><sodipodi:namedview
     id="namedview1"
     pagecolor="#ffffff"
     bordercolor="#000000"
     borderopacity="0.25"
     inkscape:showpageshadow="2"
     inkscape:pageopacity="0.0"
     inkscape:pagecheckerboard="0"
     inkscape:deskcolor="#d1d1d1"
     inkscape:document-units="mm"
     inkscape:zoom="0.58592568"
     inkscape:cx="667.32013"
     inkscape:cy="174.08351"
     inkscape:window-width="1512"
     inkscape:window-height="921"
     inkscape:window-x="0"
     inkscape:window-y="33"
     inkscape:window-maximized="1"
     inkscape:current-layer="layer1" /><defs
     id="defs1" /><g
     inkscape:label="Layer 1"
     inkscape:groupmode="layer"
     id="layer1"
     transform="translate(25.356805,-24.328175)"><path
       style="fill:#000000;stroke-width:1.69039"
       d="m 362.16478,124.06151 c -2.63326,-3.17289 -4.95932,-10.27355 -3.13414,-9.56745 6.57505,2.54368 14.08115,-1.75895 16.50344,-9.46006 2.5085,-7.975181 0.5369,-9.153905 -10.63432,-6.357716 -12.81123,3.206696 -17.32515,-0.392892 -7.68756,-6.130369 0.39379,-0.234432 3.80407,-0.782922 7.57838,-1.218864 7.66905,-0.885797 9.54097,-1.732849 10.1093,-4.574502 1.02611,-5.130574 -0.24146,-7.42381 -2.98308,-5.396846 -2.39252,1.768874 -13.30007,4.045448 -14.02927,2.928126 -3.651,-5.594339 0.91698,-9.942855 10.94609,-10.420144 3.70986,-0.176553 8.8867,-0.851129 11.5041,-1.499058 l 4.75888,-1.17805 1.36622,1.687668 c 2.8192,3.48248 2.51001,5.056853 -2.0072,10.220692 -4.44605,5.082524 -3.34309,7.004079 3.89971,6.793884 5.56423,-0.161482 8.08088,1.25011 7.37603,4.137196 -0.69254,2.836614 -1.85855,3.494646 -6.19235,3.494646 -6.67157,0 -7.03612,0.295996 -7.03612,5.713107 0,7.58092 -2.74004,11.67466 -12.8039,19.12954 -3.66952,2.71824 -6.21204,3.29131 -7.53421,1.6982 z M 86.497482,122.44816 c -3.238423,-6.92882 -3.01967,-10.22015 1.614687,-24.294291 2.784354,-8.455845 4.103156,-13.552122 4.793373,-18.52314 1.855096,-13.360589 2.056017,-14.507087 2.645667,-15.096739 1.521291,-1.521289 2.435401,0.832946 2.435401,6.272233 0,2.937774 0.29692,7.859046 0.659824,10.936158 l 0.659826,5.594751 -2.120521,5.539014 c -1.631694,4.262148 -2.482064,8.013434 -3.688887,16.272974 -2.08483,14.26866 -4.447774,18.75834 -6.99937,13.29904 z m 65.363968,-0.80377 c -0.19463,-0.50721 1.02558,-3.8631 2.71157,-7.45755 5.85203,-12.47614 6.36938,-23.225819 1.11779,-23.225819 -0.86222,0 -8.34986,8.133334 -10.70064,11.623409 -4.33011,6.42867 -7.9285,6.61466 -7.31396,0.37804 0.48289,-4.90059 -0.83062,-7.085524 -3.81232,-6.341519 -3.44864,0.860519 -4.05861,2.215306 -4.83562,10.740219 -0.62938,6.90522 -3.44289,10.51257 -5.37844,6.89597 -0.95207,-1.77897 -0.74315,-12.40857 0.31138,-15.841979 0.50368,-1.639911 1.29691,-4.948178 1.76273,-7.351703 1.88632,-9.732854 7.35822,-12.896289 6.67472,-3.85881 -0.44823,5.926601 1.45719,5.940369 9.78449,0.07071 1.93154,-1.361482 2.91297,-0.180218 2.92276,3.517873 0.018,6.790392 1.40424,6.323113 6.01365,-2.027088 5.84743,-10.592937 14.84881,-6.704377 14.84881,6.414624 0,8.106183 -12.29827,31.176903 -14.10692,26.463623 z m -174.210658,-7.11621 c -3.33633,-2.80734 -3.351681,-2.97297 -2.616756,-28.234861 1.199241,-41.22198 4.876047,-53.763204 14.248159,-48.59906 1.7967296,0.990017 3.2970384,1.243244 7.3280959,1.236856 2.78784839,-0.0044 7.128988,0.329337 9.6469757,0.741675 6.9750334,1.142212 11.0094444,0.648666 14.8534484,-1.817089 18.71098,-12.00224 26.460943,41.228496 9.654304,66.310719 -1.616527,2.4125 -3.564697,5.51442 -4.329268,6.89316 -2.465897,4.44669 -3.83056,4.01941 -6.219183,-1.94727 -2.550461,-6.37093 -1.08633,-11.139003 3.115155,-10.144766 0.882367,0.208802 1.986903,0.438286 2.454524,0.50996 3.912896,0.599756 6.024238,-14.197009 5.086813,-35.649551 C 30.1449,47.16433 27.331665,45.457312 6.0579246,48.770589 0.26671969,49.672541 -5.4207353,50.4105 -6.580862,50.4105 c -5.291509,0 -7.577662,6.075711 -8.751053,23.256916 -0.347192,5.083724 -0.920452,10.719053 -1.273908,12.522955 -0.353457,1.803903 -0.825097,8.646802 -1.048086,15.206449 -0.500115,14.71168 -1.036019,16.21044 -4.695299,13.13136 z m 257.832788,-1.84366 c -1.44813,-1.44812 -1.16553,-2.40955 4.32299,-14.706972 8.26522,-18.518854 8.62007,-20.629352 3.0439,-18.103929 -6.30247,2.854366 -14.3819,3.495348 -15.25867,1.210546 -2.19374,-5.716792 5.81867,-11.52556 17.27566,-12.524379 5.60686,-0.488805 5.97285,-0.887325 6.96774,-7.586868 1.97208,-13.279825 7.0001,-24.131769 12.38987,-26.74091 l 2.71055,-1.312157 1.16395,1.437418 c 1.4653,1.809567 1.13867,5.448262 -1.06751,11.8918 -5.24595,15.321695 -6.5111,21.771503 -4.42219,22.544247 1.63188,0.603673 10.156,-0.250645 14.18377,-1.42155 5.07421,-1.47511 5.85738,-0.413107 3.91002,5.30208 -1.42897,4.193771 -2.30513,4.570216 -10.65908,4.5797 -9.96689,0.01133 -9.40452,-0.293988 -11.33445,6.153145 -2.73436,9.134357 -5.75988,14.783489 -10.41661,19.449469 -2.24647,2.25094 -5.19365,5.594 -6.54926,7.42903 -2.62512,3.55349 -4.41902,4.24098 -6.26068,2.39933 z m 46.32267,-4.11854 c -10.96084,-4.80663 -17.50491,-20.105724 -7.9472,-18.579458 7.87007,1.256772 13.16796,6.064233 13.15579,11.937968 -0.0135,6.61599 -1.35799,8.33008 -5.20859,6.64149 z M -5.8447387,91.556031 C -12.98232,84.052874 -9.9836835,76.846068 0.49706545,76.314387 3.6997311,76.151924 6.5264173,75.891474 6.7785902,75.735622 c 0.252173,-0.155854 2.3559299,1.126402 4.6750158,2.84945 2.319085,1.723049 4.903896,3.62354 5.744024,4.223313 3.330556,2.37771 -1.341943,7.982336 -8.5038268,10.200275 -1.174524,0.363733 -1.5325596,-0.0012 -2.9958877,-3.05351 -2.0776083,-4.333633 -3.454288,-4.632218 -3.2122735,-0.696703 0.3165963,5.148331 -4.3849784,6.445061 -8.3303807,2.297584 z M 107.3114,92.448319 c -3.74729,-3.747298 0.63009,-13.5392 8.25014,-18.454954 7.34596,-4.738945 9.03598,-7.204316 7.17282,-10.463578 -1.28397,-2.246061 -1.08896,-5.498374 0.46822,-7.809074 2.52887,-3.752595 3.65739,-3.019197 6.05178,3.93292 1.90829,5.540716 5.83984,5.186468 7.36731,-0.663822 0.65849,-2.522043 3.17662,-6.654223 8.93487,-14.661847 3.14892,-4.378992 -3.46551,-4.305543 -12.09948,0.134352 -13.09446,6.733643 -12.99931,-0.364257 0.15595,-11.633923 9.80578,-8.400272 20.18368,-8.167656 15.62505,0.350226 -1.30957,2.446943 2.0231,5.859604 4.96975,5.089038 4.00728,-1.047926 4.40873,2.46283 0.57935,5.066487 -15.38443,10.460128 -15.47939,16.829482 -0.14485,9.716309 8.61162,-3.994642 10.55395,-4.370244 9.81235,-1.897481 -0.58769,1.959562 -1.41848,2.635015 -4.74777,3.860088 l -2.98166,1.097153 -0.15129,5.64786 c -0.17649,6.589052 0.45216,8.323729 3.28203,9.05636 2.17483,0.563048 2.22232,0.767834 1.14564,4.940138 -2.34775,9.097884 -8.74887,0.07441 -8.74887,-12.333025 v -5.855077 h -2.11426 c -2.81084,0 -4.77773,2.001262 -5.32728,5.420375 -1.11828,6.957599 -6.60809,15.069427 -9.97907,14.745233 -3.64765,-0.350803 -3.13919,-3.37345 1.27911,-7.603816 3.93855,-3.771035 5.16357,-7.146177 2.2768,-6.27301 -5.63851,1.705494 -8.63459,4.675666 -10.96693,10.872124 -4.46319,11.857614 -15.89723,21.933429 -20.10972,17.720939 z m 12.79354,-14.474066 c 2.67631,-2.812213 2.77553,-4.673662 0.19709,-3.697466 -1.96138,0.742576 -3.84314,5.405279 -2.15405,5.337377 0.22663,-0.0091 1.10726,-0.747072 1.95696,-1.639911 z m 61.59916,0.808018 c -3.14899,-0.983931 -19.51366,-9.583847 -20.50116,-10.773721 -2.88427,-3.475324 3.17266,-11.59527 8.67141,-11.624928 3.44724,-0.01859 4.04939,1.890888 1.95542,6.200898 -1.53964,3.169061 -1.19102,3.853966 3.04611,5.98436 3.16175,1.589696 12.98572,4.502206 15.18606,4.502206 1.72974,0 2.99441,1.841236 2.44774,3.563669 -0.65043,2.049267 -7.04971,3.321069 -10.80558,2.147516 z m 155.33434,-1.76593 c -0.47123,-1.034227 -0.45745,-2.293854 0.0505,-4.621566 0.38407,-1.759913 0.85655,-6.100586 1.04995,-9.645939 0.48981,-8.979281 1.83351,-10.593733 7.01518,-8.428699 4.82754,2.017075 4.78249,2.124117 4.78249,-11.363777 0,-14.734771 1.48668,-18.851796 5.45969,-15.119354 1.77176,1.664482 1.82212,4.471124 0.24801,13.821699 -2.89472,17.19541 -3.27765,16.396737 8.07813,16.848723 10.51752,0.418623 16.18542,-4.56299 17.87101,-15.707142 0.44074,-2.913917 2.38044,-5.742283 3.5985,-5.247156 0.45248,0.183927 1.21427,0.493094 1.69284,0.687038 1.04557,0.42371 3.29862,-2.970372 3.30195,-4.97419 0.003,-1.647906 -0.2765,-1.652769 -5.11652,-0.08912 -4.73333,1.529181 -5.92964,3.00306 -5.42513,6.683873 0.51168,3.733204 -8.42014,15.178901 -11.39762,14.605489 -3.48969,-0.672052 -2.49603,-9.934437 1.53484,-14.306836 1.65301,-1.793091 1.44259,-3.464504 -0.43617,-3.464504 -1.57514,0 -3.68907,4.208398 -5.09226,10.13763 -1.40242,5.925908 -3.83723,8.64176 -4.67798,5.217898 -1.09238,-4.448594 -1.09965,-7.638303 -0.0243,-10.628871 l 1.11274,-3.094459 -1.33865,-0.888835 c -1.72767,-1.147141 -1.69285,-1.504503 0.45034,-4.619515 0.98394,-1.430117 1.78899,-2.881114 1.78899,-3.224437 0,-2.167647 3.12025,-2.67385 4.69224,-0.761232 1.82562,2.221201 3.80833,2.452838 6.04172,0.705846 1.89017,-1.478511 2.53813,-1.478511 3.87616,0 1.52039,1.680016 2.04581,1.560566 7.9821,-1.814627 6.18987,-3.519384 8.62194,-4.093758 11.35333,-2.681295 5.43862,2.812413 4.49184,9.173225 -2.66552,17.907826 -1.22176,1.491001 -2.65463,3.578123 -3.18417,4.63805 -0.85112,1.70363 -1.30859,1.961722 -3.94445,2.225308 -2.89321,0.289321 -6.8578,4.173694 -6.8578,6.719063 0,0.784624 13.72218,0.156412 17.53062,-0.802562 2.05497,-0.517447 3.17868,-0.495012 4.93869,0.0986 1.25315,0.422656 3.1876,0.785168 4.29881,0.805585 7.63528,0.140285 -0.15501,10.397325 -8.10568,10.67221 -2.85356,0.09867 -2.86009,0.09442 -3.05725,-1.983076 -0.3025,-3.187182 -8.92179,-4.252166 -17.3081,-2.138561 -1.85125,0.466569 -6.75077,1.033434 -10.88782,1.259699 -4.13704,0.226266 -10.43394,0.985011 -13.99309,1.686101 l -6.47117,1.274708 -0.69957,2.435352 c -2.10974,7.344363 -6.29296,11.065682 -8.06565,7.17505 z m 34.93032,-30.613453 c 0.50015,-1.303377 0.0443,-1.567395 -1.38547,-0.802255 -0.69587,0.372416 -1.08153,1.018553 -0.89621,1.501489 0.39259,1.02308 1.78446,0.596538 2.28168,-0.699234 z M 0.79235607,65.14919 C -5.0591766,62.778567 -3.1242134,58.8369 4.1464302,58.316688 c 5.5728369,-0.398733 6.7758118,0.249432 6.7758118,3.650827 0,4.662644 -3.6469363,5.808103 -10.12988593,3.181675 z M 97.025986,62.08167 c -0.202574,-0.527898 0.423489,-2.166343 1.439854,-3.768187 0.989049,-1.558792 2.37059,-4.779698 3.0701,-7.15757 1.73491,-5.897599 5.39564,-4.052912 5.39564,2.718932 0,4.317184 -8.648574,11.482565 -9.905594,8.206825 z M 109.01874,45.243174 c -5.57089,-2.943515 -6.68832,-8.274219 -2.30263,-10.984725 2.77044,-1.712226 3.17348,-1.240591 4.93219,5.771599 1.62056,6.461382 1.22333,7.248893 -2.62956,5.213126 z"
       id="path1" /></g></svg>
